<svg width="734" height="205" viewBox="0 0 734 205" fill="none" xmlns="http://www.w3.org/2000/svg">
<path fill-rule="evenodd" clip-rule="evenodd" d="M0 55.1544V205H679.154L734 150.154V0H55.1543L55.3086 0.154327L0.154297 55.3087L0 55.1544Z" fill="#41CD52"/>
<path d="M123.893 133.93C118.809 133.93 114.128 133.093 109.85 131.419C105.572 129.745 101.852 127.42 98.6905 124.444C95.5285 121.406 93.0795 117.872 91.3435 113.842C89.6075 109.75 88.7395 105.286 88.7395 100.45C88.7395 95.614 89.6075 91.181 91.3435 87.151C93.0795 83.059 95.5285 79.525 98.6905 76.549C101.852 73.511 105.572 71.155 109.85 69.481C114.128 67.807 118.778 66.97 123.8 66.97C128.884 66.97 133.534 67.807 137.75 69.481C142.028 71.155 145.748 73.48 148.91 76.456C152.072 79.432 154.521 82.966 156.257 87.058C157.993 91.15 158.861 95.614 158.861 100.45C158.861 105.286 157.993 109.75 156.257 113.842C154.521 117.934 152.072 121.468 148.91 124.444C145.748 127.42 142.028 129.745 137.75 131.419C133.534 133.093 128.915 133.93 123.893 133.93ZM145.097 147.229C142.803 147.229 140.571 146.95 138.401 146.392C136.293 145.896 134.185 145.028 132.077 143.788C130.031 142.61 127.892 141.029 125.66 139.045C123.428 137.123 120.979 134.736 118.313 131.884L131.147 128.536C132.883 130.83 134.526 132.659 136.076 134.023C137.688 135.449 139.238 136.472 140.726 137.092C142.214 137.712 143.764 138.022 145.376 138.022C149.654 138.022 153.374 136.286 156.536 132.814L162.116 139.51C157.776 144.656 152.103 147.229 145.097 147.229ZM123.8 123.328C127.086 123.328 130.124 122.77 132.914 121.654C135.704 120.538 138.122 118.957 140.168 116.911C142.214 114.803 143.795 112.354 144.911 109.564C146.089 106.774 146.678 103.736 146.678 100.45C146.678 97.102 146.089 94.064 144.911 91.336C143.795 88.546 142.214 86.128 140.168 84.082C138.122 81.974 135.704 80.362 132.914 79.246C130.124 78.13 127.086 77.572 123.8 77.572C120.514 77.572 117.476 78.13 114.686 79.246C111.896 80.362 109.478 81.974 107.432 84.082C105.386 86.128 103.774 88.546 102.596 91.336C101.48 94.064 100.922 97.102 100.922 100.45C100.922 103.736 101.48 106.774 102.596 109.564C103.774 112.354 105.386 114.803 107.432 116.911C109.478 118.957 111.896 120.538 114.686 121.654C117.476 122.77 120.514 123.328 123.8 123.328ZM191.858 133.93C186.774 133.93 181.907 133.217 177.257 131.791C172.607 130.303 168.918 128.412 166.19 126.118L170.375 116.725C172.979 118.771 176.203 120.476 180.047 121.84C183.891 123.204 187.828 123.886 191.858 123.886C195.268 123.886 198.027 123.514 200.135 122.77C202.243 122.026 203.793 121.034 204.785 119.794C205.777 118.492 206.273 117.035 206.273 115.423C206.273 113.439 205.56 111.858 204.134 110.68C202.708 109.44 200.848 108.479 198.554 107.797C196.322 107.053 193.811 106.371 191.021 105.751C188.293 105.131 185.534 104.418 182.744 103.612C180.016 102.744 177.505 101.659 175.211 100.357C172.979 98.993 171.15 97.195 169.724 94.963C168.298 92.731 167.585 89.879 167.585 86.407C167.585 82.873 168.515 79.649 170.375 76.735C172.297 73.759 175.18 71.403 179.024 69.667C182.93 67.869 187.859 66.97 193.811 66.97C197.717 66.97 201.592 67.466 205.436 68.458C209.28 69.45 212.628 70.876 215.48 72.736L211.667 82.129C208.753 80.393 205.746 79.122 202.646 78.316C199.546 77.448 196.57 77.014 193.718 77.014C190.37 77.014 187.642 77.417 185.534 78.223C183.488 79.029 181.969 80.083 180.977 81.385C180.047 82.687 179.582 84.175 179.582 85.849C179.582 87.833 180.264 89.445 181.628 90.685C183.054 91.863 184.883 92.793 187.115 93.475C189.409 94.157 191.951 94.839 194.741 95.521C197.531 96.141 200.29 96.854 203.018 97.66C205.808 98.466 208.319 99.52 210.551 100.822C212.845 102.124 214.674 103.891 216.038 106.123C217.464 108.355 218.177 111.176 218.177 114.586C218.177 118.058 217.216 121.282 215.294 124.258C213.434 127.172 210.551 129.528 206.645 131.326C202.739 133.062 197.81 133.93 191.858 133.93ZM250.346 133.93C245.262 133.93 240.395 133.217 235.745 131.791C231.095 130.303 227.406 128.412 224.678 126.118L228.863 116.725C231.467 118.771 234.691 120.476 238.535 121.84C242.379 123.204 246.316 123.886 250.346 123.886C253.756 123.886 256.515 123.514 258.623 122.77C260.731 122.026 262.281 121.034 263.273 119.794C264.265 118.492 264.761 117.035 264.761 115.423C264.761 113.439 264.048 111.858 262.622 110.68C261.196 109.44 259.336 108.479 257.042 107.797C254.81 107.053 252.299 106.371 249.509 105.751C246.781 105.131 244.022 104.418 241.232 103.612C238.504 102.744 235.993 101.659 233.699 100.357C231.467 98.993 229.638 97.195 228.212 94.963C226.786 92.731 226.073 89.879 226.073 86.407C226.073 82.873 227.003 79.649 228.863 76.735C230.785 73.759 233.668 71.403 237.512 69.667C241.418 67.869 246.347 66.97 252.299 66.97C256.205 66.97 260.08 67.466 263.924 68.458C267.768 69.45 271.116 70.876 273.968 72.736L270.155 82.129C267.241 80.393 264.234 79.122 261.134 78.316C258.034 77.448 255.058 77.014 252.206 77.014C248.858 77.014 246.13 77.417 244.022 78.223C241.976 79.029 240.457 80.083 239.465 81.385C238.535 82.687 238.07 84.175 238.07 85.849C238.07 87.833 238.752 89.445 240.116 90.685C241.542 91.863 243.371 92.793 245.603 93.475C247.897 94.157 250.439 94.839 253.229 95.521C256.019 96.141 258.778 96.854 261.506 97.66C264.296 98.466 266.807 99.52 269.039 100.822C271.333 102.124 273.162 103.891 274.526 106.123C275.952 108.355 276.665 111.176 276.665 114.586C276.665 118.058 275.704 121.282 273.782 124.258C271.922 127.172 269.039 129.528 265.133 131.326C261.227 133.062 256.298 133.93 250.346 133.93ZM286.388 111.982V102.31H311.963V111.982H286.388ZM344.617 133.93C339.533 133.93 334.666 133.217 330.016 131.791C325.366 130.303 321.677 128.412 318.949 126.118L323.134 116.725C325.738 118.771 328.962 120.476 332.806 121.84C336.65 123.204 340.587 123.886 344.617 123.886C348.027 123.886 350.786 123.514 352.894 122.77C355.002 122.026 356.552 121.034 357.544 119.794C358.536 118.492 359.032 117.035 359.032 115.423C359.032 113.439 358.319 111.858 356.893 110.68C355.467 109.44 353.607 108.479 351.313 107.797C349.081 107.053 346.57 106.371 343.78 105.751C341.052 105.131 338.293 104.418 335.503 103.612C332.775 102.744 330.264 101.659 327.97 100.357C325.738 98.993 323.909 97.195 322.483 94.963C321.057 92.731 320.344 89.879 320.344 86.407C320.344 82.873 321.274 79.649 323.134 76.735C325.056 73.759 327.939 71.403 331.783 69.667C335.689 67.869 340.618 66.97 346.57 66.97C350.476 66.97 354.351 67.466 358.195 68.458C362.039 69.45 365.387 70.876 368.239 72.736L364.426 82.129C361.512 80.393 358.505 79.122 355.405 78.316C352.305 77.448 349.329 77.014 346.477 77.014C343.129 77.014 340.401 77.417 338.293 78.223C336.247 79.029 334.728 80.083 333.736 81.385C332.806 82.687 332.341 84.175 332.341 85.849C332.341 87.833 333.023 89.445 334.387 90.685C335.813 91.863 337.642 92.793 339.874 93.475C342.168 94.157 344.71 94.839 347.5 95.521C350.29 96.141 353.049 96.854 355.777 97.66C358.567 98.466 361.078 99.52 363.31 100.822C365.604 102.124 367.433 103.891 368.797 106.123C370.223 108.355 370.936 111.176 370.936 114.586C370.936 118.058 369.975 121.282 368.053 124.258C366.193 127.172 363.31 129.528 359.404 131.326C355.498 133.062 350.569 133.93 344.617 133.93ZM395.222 133V78.13H373.646V67.9H428.888V78.13H407.312V133H395.222ZM452.959 133V107.239L455.656 114.679L427.384 67.9H440.311L463.003 105.565H455.749L478.627 67.9H490.531L462.259 114.679L465.049 107.239V133H452.959ZM497.631 133V67.9H509.721V122.77H543.759V133H497.631ZM564.464 94.963H596.828V104.914H564.464V94.963ZM565.394 122.863H602.129V133H553.304V67.9H600.827V78.037H565.394V122.863ZM635.787 133.93C630.703 133.93 625.836 133.217 621.186 131.791C616.536 130.303 612.847 128.412 610.119 126.118L614.304 116.725C616.908 118.771 620.132 120.476 623.976 121.84C627.82 123.204 631.757 123.886 635.787 123.886C639.197 123.886 641.956 123.514 644.064 122.77C646.172 122.026 647.722 121.034 648.714 119.794C649.706 118.492 650.202 117.035 650.202 115.423C650.202 113.439 649.489 111.858 648.063 110.68C646.637 109.44 644.777 108.479 642.483 107.797C640.251 107.053 637.74 106.371 634.95 105.751C632.222 105.131 629.463 104.418 626.673 103.612C623.945 102.744 621.434 101.659 619.14 100.357C616.908 98.993 615.079 97.195 613.653 94.963C612.227 92.731 611.514 89.879 611.514 86.407C611.514 82.873 612.444 79.649 614.304 76.735C616.226 73.759 619.109 71.403 622.953 69.667C626.859 67.869 631.788 66.97 637.74 66.97C641.646 66.97 645.521 67.466 649.365 68.458C653.209 69.45 656.557 70.876 659.409 72.736L655.596 82.129C652.682 80.393 649.675 79.122 646.575 78.316C643.475 77.448 640.499 77.014 637.647 77.014C634.299 77.014 631.571 77.417 629.463 78.223C627.417 79.029 625.898 80.083 624.906 81.385C623.976 82.687 623.511 84.175 623.511 85.849C623.511 87.833 624.193 89.445 625.557 90.685C626.983 91.863 628.812 92.793 631.044 93.475C633.338 94.157 635.88 94.839 638.67 95.521C641.46 96.141 644.219 96.854 646.947 97.66C649.737 98.466 652.248 99.52 654.48 100.822C656.774 102.124 658.603 103.891 659.967 106.123C661.393 108.355 662.106 111.176 662.106 114.586C662.106 118.058 661.145 121.282 659.223 124.258C657.363 127.172 654.48 129.528 650.574 131.326C646.668 133.062 641.739 133.93 635.787 133.93Z" fill="white"/>
</svg>
